<svg width="35" height="35" viewBox="0 0 35 35" fill="none" xmlns="http://www.w3.org/2000/svg">
<path fill-rule="evenodd" clip-rule="evenodd" d="M10.1697 3.25122C8.29543 3.25122 6.49789 3.99579 5.17256 5.32112C3.84723 6.64645 3.10266 8.44399 3.10266 10.3183V24.4524C3.10266 26.3268 3.84723 28.1243 5.17256 29.4496C6.49789 30.775 8.29543 31.5195 10.1697 31.5195H24.3039C26.1782 31.5195 27.9757 30.775 29.3011 29.4496C30.6264 28.1243 31.371 26.3268 31.371 24.4524V10.3183C31.371 8.44399 30.6264 6.64645 29.3011 5.32112C27.9757 3.99579 26.1782 3.25122 24.3039 3.25122H10.1697ZM22.5089 15.5253C22.6358 15.3898 22.7348 15.2306 22.8003 15.0569C22.8657 14.8831 22.8963 14.6982 22.8903 14.5126C22.8842 14.327 22.8417 14.1444 22.7651 13.9753C22.6885 13.8061 22.5793 13.6537 22.4438 13.5267C22.3083 13.3998 22.1492 13.3008 21.9754 13.2353C21.8016 13.1699 21.6167 13.1393 21.4311 13.1453C21.2455 13.1514 21.0629 13.1939 20.8938 13.2705C20.7246 13.3471 20.5722 13.4563 20.4453 13.5918L16.0877 18.2419L13.9351 16.3296C13.653 16.0951 13.2909 15.9794 12.9252 16.007C12.5595 16.0346 12.2188 16.2033 11.9751 16.4774C11.7315 16.7515 11.6039 17.1096 11.6194 17.4761C11.6348 17.8425 11.7922 18.1886 12.0581 18.4412L15.2382 21.268C15.5134 21.5125 15.8731 21.6399 16.2408 21.6233C16.6084 21.6066 16.9551 21.4473 17.2071 21.179L22.5074 15.5253H22.5089Z" fill="#00AC00"/>
</svg>
