<svg width="27" height="26" viewBox="0 0 27 26" fill="none" xmlns="http://www.w3.org/2000/svg">
<path d="M13.3213 0.435059C6.299 0.435059 0.553467 6.16783 0.553467 13.2285C0.553467 19.6124 5.2265 24.911 11.3295 25.8686V16.9311H8.0865V13.2285H11.3295V10.4068C11.3295 7.20202 13.232 5.44006 16.1558 5.44006C17.5475 5.44006 19.003 5.68265 19.003 5.68265V8.83631H17.3943C15.8111 8.83631 15.3131 9.81943 15.3131 10.8281V13.2285H18.8626L18.288 16.9311H15.3131V25.8686C18.3218 25.3935 21.0615 23.8584 23.0376 21.5404C25.0137 19.2225 26.096 16.2744 26.0892 13.2285C26.0892 6.16783 20.3436 0.435059 13.3213 0.435059Z" fill="#00AC00"/>
</svg>
