<svg width="31" height="32" viewBox="0 0 31 32" fill="none" xmlns="http://www.w3.org/2000/svg">
<path d="M27.0929 11.4343C27.08 10.4673 26.899 9.50992 26.5579 8.60497C26.2621 7.84165 25.8104 7.14841 25.2315 6.56956C24.6527 5.9907 23.9594 5.53896 23.1961 5.24319C22.3028 4.90785 21.359 4.72653 20.4051 4.70694C19.1768 4.65204 18.7874 4.63672 15.6695 4.63672C12.5516 4.63672 12.1519 4.63672 10.9326 4.70694C9.97903 4.72667 9.03573 4.90799 8.14281 5.24319C7.37937 5.53875 6.68602 5.99042 6.10715 6.5693C5.52827 7.14818 5.0766 7.84153 4.78103 8.60497C4.44502 9.49761 4.26409 10.4411 4.24606 11.3947C4.19116 12.6243 4.17456 13.0137 4.17456 16.1316C4.17456 19.2495 4.17456 19.6479 4.24606 20.8685C4.26521 21.8235 4.44524 22.7658 4.78103 23.6608C5.07709 24.424 5.5291 25.1171 6.10817 25.6957C6.68724 26.2744 7.38065 26.7259 8.14409 27.0213C9.03456 27.3701 9.97803 27.5644 10.9339 27.5959C12.1634 27.6508 12.5528 27.6674 15.6707 27.6674C18.7886 27.6674 19.1883 27.6674 20.4076 27.5959C21.3616 27.5771 22.3054 27.3962 23.1987 27.0609C23.9618 26.7648 24.6548 26.3129 25.2337 25.7341C25.8125 25.1553 26.2643 24.4623 26.5604 23.6991C26.8962 22.8054 27.0763 21.8631 27.0954 20.9068C27.1503 19.6785 27.1669 19.2891 27.1669 16.1699C27.1644 13.052 27.1644 12.6562 27.0929 11.4343ZM15.6618 22.0278C12.4009 22.0278 9.75922 19.3861 9.75922 16.1252C9.75922 12.8643 12.4009 10.2227 15.6618 10.2227C17.2273 10.2227 18.7286 10.8445 19.8356 11.9515C20.9425 13.0584 21.5644 14.5598 21.5644 16.1252C21.5644 17.6907 20.9425 19.192 19.8356 20.299C18.7286 21.4059 17.2273 22.0278 15.6618 22.0278ZM21.7993 11.3807C21.0371 11.3807 20.4229 10.7653 20.4229 10.0043C20.4229 9.82366 20.4585 9.64477 20.5277 9.47786C20.5968 9.31094 20.6981 9.15928 20.8259 9.03153C20.9536 8.90378 21.1053 8.80245 21.2722 8.73331C21.4391 8.66417 21.618 8.62859 21.7987 8.62859C21.9793 8.62859 22.1582 8.66417 22.3251 8.73331C22.4921 8.80245 22.6437 8.90378 22.7715 9.03153C22.8992 9.15928 23.0005 9.31094 23.0697 9.47786C23.1388 9.64477 23.1744 9.82366 23.1744 10.0043C23.1744 10.7653 22.559 11.3807 21.7993 11.3807Z" fill="#00AC00"/>
<path d="M15.6618 19.9594C17.7794 19.9594 19.496 18.2428 19.496 16.1252C19.496 14.0076 17.7794 12.291 15.6618 12.291C13.5443 12.291 11.8276 14.0076 11.8276 16.1252C11.8276 18.2428 13.5443 19.9594 15.6618 19.9594Z" fill="#00AC00"/>
</svg>
