<svg width="80" height="80" viewBox="0 0 121 122" fill="none" xmlns="http://www.w3.org/2000/svg">
<g clip-path="url(#clip0_192_27)">
<path d="M31.9813 104.488L33.9594 105.474C42.2025 110.402 51.434 112.703 60.6659 112.703C89.6799 112.703 113.419 89.0449 113.419 60.13C113.419 46.3298 107.813 32.858 97.9226 23.0005C88.0313 13.143 74.8428 7.55737 60.6659 7.55737C31.6519 7.55737 7.91274 31.215 8.24266 60.4587C8.24266 70.3158 11.21 79.845 16.1554 88.059L17.4741 90.0308L12.1993 109.417L31.9813 104.488Z" fill="#00E676"/>
<path d="M103.527 17.7432C92.3173 6.2432 76.8213 0 60.9953 0C27.3659 0 0.329914 27.2719 0.659355 60.4583C0.659355 70.9729 3.62669 81.1592 8.57257 90.3591L0 121.574L31.9813 113.36C40.8833 118.289 50.7742 120.589 60.6659 120.589C93.966 120.589 121.002 93.3163 121.002 60.1305C121.002 44.0297 114.737 28.9149 103.528 17.7432H103.527ZM60.9953 110.403C52.0933 110.403 43.1913 108.103 35.608 103.503L33.63 102.517L14.5072 107.446L19.4526 88.7171L18.1339 86.7453C3.62669 63.4164 10.5506 32.5292 34.2893 18.0715C58.028 3.61431 88.6906 10.5146 103.198 34.1722C117.705 57.8299 110.781 88.3878 87.0425 102.846C79.4587 107.774 70.2273 110.402 60.9953 110.402V110.403ZM90.0093 73.931L86.3827 72.2881C86.3827 72.2881 81.1078 69.988 77.8106 68.345C77.4806 68.345 77.1512 68.0162 76.8213 68.0162C75.832 68.0162 75.1727 68.345 74.5133 68.6737C74.5133 68.6737 74.1839 69.0021 69.5679 74.2594C69.238 74.9165 68.5786 75.2453 67.9193 75.2453H67.5894C67.2599 75.2453 66.6006 74.9165 66.2707 74.5882L64.622 73.931C60.9953 72.2881 57.6986 70.3163 55.0607 67.6879C54.4013 67.0307 53.412 66.3736 52.7527 65.7165C50.4447 63.4164 48.1367 60.7876 46.4886 57.8304L46.1587 57.1732C45.8292 56.8445 45.8292 56.5161 45.4993 55.859C45.4993 55.2019 45.4993 54.5448 45.8292 54.216C45.8292 54.216 47.1479 52.573 48.1367 51.5876C48.7966 50.93 49.126 49.9446 49.7854 49.2875C50.4447 48.3016 50.7746 46.9874 50.4447 46.0015C50.1153 44.3585 46.1587 35.4869 45.1699 33.5156C44.51 32.5297 43.8512 32.2014 42.8619 31.8726H39.2352C38.5754 31.8726 37.9165 32.2014 37.2567 32.2014L36.9267 32.5297C36.2674 32.8585 35.608 33.5156 34.9487 33.8439C34.2893 34.5015 33.9594 35.1581 33.3001 35.8157C30.9921 38.7729 29.6734 42.3872 29.6734 46.0015C29.6734 48.6299 30.3327 51.2588 31.322 53.5589L31.6519 54.5448C34.6192 60.7876 38.5754 66.3736 43.8512 71.3022L45.1699 72.6164C46.1587 73.6023 47.1479 74.2594 47.8073 75.2448C54.7312 81.1597 62.644 85.4311 71.546 87.7312C72.5352 88.0595 73.854 88.0595 74.8432 88.3883H78.14C79.7886 88.3883 81.7667 87.7312 83.0859 87.0741C84.0747 86.417 84.734 86.417 85.3934 85.7599L86.0532 85.1023C86.7126 84.4452 87.3719 84.1169 88.0313 83.4598C88.6906 82.8027 89.35 82.1456 89.6799 81.488C90.3393 80.1738 90.6687 78.5308 90.9986 76.8883V74.5882C90.9986 74.5882 90.6687 74.2594 90.0093 73.931Z" fill="white"/>
</g>
<defs>
<clipPath id="clip0_192_27">
<rect width="121" height="122" fill="white"/>
</clipPath>
</defs>
</svg>
