<svg width="80" height="80" viewBox="0 0 148 147" fill="none" xmlns="http://www.w3.org/2000/svg">
<path d="M140.6 106.575V40.4249C140.6 34.3244 135.642 29.3999 129.5 29.3999H25.826C19.684 29.3999 14.726 34.3244 14.726 40.4249V106.575C14.726 112.675 19.684 117.6 25.826 117.6H129.5C135.642 117.6 140.6 112.675 140.6 106.575ZM130.906 39.6164C133.348 42.0419 132.016 44.5409 130.684 45.7904L100.64 73.1324L129.5 102.973C130.388 104.002 130.98 105.619 129.944 106.722C128.982 107.898 126.762 107.824 125.8 107.089L93.4619 79.6739L77.6259 94.0064L61.8639 79.6739L29.526 107.089C28.564 107.824 26.344 107.898 25.382 106.722C24.346 105.619 24.938 104.002 25.826 102.973L54.6859 73.1324L24.642 45.7904C23.31 44.5409 21.978 42.0419 24.42 39.6164C26.862 37.1909 29.378 38.3669 31.4499 40.1309L77.6259 77.1749L123.876 40.1309C125.948 38.3669 128.464 37.1909 130.906 39.6164Z" fill="#FFC500"/>
</svg>
