<svg width="58" height="58" viewBox="0 0 58 58" fill="none" xmlns="http://www.w3.org/2000/svg">
<path d="M42.0068 3.72962C42.3353 3.86542 42.6162 4.09564 42.8138 4.39114C43.0115 4.68663 43.117 5.03413 43.117 5.38962V14.3723H52.0998C52.4556 14.3717 52.8035 14.4767 53.0996 14.6741C53.3956 14.8715 53.6264 15.1523 53.7626 15.4809C53.8988 15.8096 53.9344 16.1713 53.8648 16.5203C53.7952 16.8692 53.6236 17.1896 53.3717 17.4408L46.1855 24.627C46.0184 24.7937 45.82 24.9259 45.6018 25.0159C45.3835 25.1059 45.1497 25.152 44.9136 25.1516H34.8781L32.2192 27.8141C32.3613 28.3468 32.379 28.905 32.2711 29.4456C32.1631 29.9862 31.9323 30.4947 31.5965 30.932C31.2607 31.3692 30.8288 31.7233 30.3344 31.9671C29.8399 32.2109 29.296 32.3377 28.7447 32.3378C27.7917 32.3378 26.8778 31.9592 26.204 31.2854C25.5302 30.6116 25.1516 29.6976 25.1516 28.7447L25.1552 28.5794C25.1798 28.0427 25.3245 27.5183 25.5786 27.0449C25.8328 26.5715 26.1898 26.1611 26.6235 25.8439C27.0572 25.5268 27.5565 25.3109 28.0846 25.2122C28.6128 25.1136 29.1564 25.1346 29.6753 25.2738L32.3378 22.6113V12.5758C32.3374 12.3397 32.3835 12.1059 32.4735 11.8876C32.5635 11.6694 32.6956 11.471 32.8624 11.3038L40.0485 4.11767C40.3 3.86658 40.6202 3.69569 40.9688 3.62662C41.3174 3.55754 41.6786 3.59339 42.0068 3.72962ZM44.1698 21.5585L47.7629 17.9654H41.3205C40.844 17.9654 40.3871 17.7762 40.0502 17.4392C39.7132 17.1023 39.524 16.6454 39.524 16.1689V9.72648L35.9309 13.3196V21.5585H44.1698ZM50.1056 25.784C50.7255 30.2579 49.9247 34.8135 47.816 38.8077C45.7074 42.802 42.3975 46.0331 38.3537 48.0449C34.3098 50.0567 29.7362 50.7476 25.2786 50.02C20.8209 49.2925 16.7043 47.1833 13.5099 43.9902C10.3155 40.797 8.20472 36.6813 7.47545 32.2239C6.74619 27.7665 7.43531 23.1926 9.44553 19.148C11.4558 15.1033 14.6855 11.7922 18.6789 9.68203C22.6724 7.57184 27.2277 6.76919 31.7018 7.38738L30.3257 8.76353C29.7561 9.33313 29.3215 10.0232 29.0537 10.7828L28.7447 10.7793C25.1784 10.7798 21.693 11.8417 18.7323 13.8298C15.7715 15.8178 13.4695 18.6421 12.1193 21.9429C10.7691 25.2437 10.4318 28.8717 11.1504 32.3648C11.869 35.8579 13.611 39.0581 16.1545 41.5579C18.6981 44.0577 21.928 45.7439 25.4331 46.4018C28.9381 47.0597 32.5597 46.6595 35.8366 45.2523C39.1135 43.845 41.8974 41.4943 43.8338 38.4995C45.7702 35.5048 46.7715 32.0014 46.7101 28.4357C47.4669 28.168 48.1544 27.7347 48.7223 27.1673L50.102 25.784H50.1056ZM28.7447 16.1689C26.2574 16.1689 23.826 16.9064 21.758 18.2883C19.6899 19.6701 18.078 21.6342 17.1262 23.9321C16.1743 26.2301 15.9253 28.7586 16.4105 31.1981C16.8958 33.6376 18.0935 35.8784 19.8523 37.6371C21.611 39.3959 23.8518 40.5936 26.2913 41.0789C28.7307 41.5641 31.2593 41.3151 33.5572 40.3632C35.8552 39.4114 37.8192 37.7995 39.2011 35.7314C40.5829 33.6634 41.3205 31.232 41.3205 28.7447H37.7274C37.7274 30.5213 37.2006 32.258 36.2136 33.7352C35.2265 35.2124 33.8236 36.3638 32.1822 37.0436C30.5409 37.7235 28.7347 37.9014 26.9923 37.5548C25.2498 37.2082 23.6492 36.3527 22.393 35.0964C21.1367 33.8402 20.2812 32.2396 19.9346 30.4971C19.588 28.7547 19.7659 26.9485 20.4457 25.3072C21.1256 23.6658 22.277 22.2629 23.7542 21.2758C25.2314 20.2888 26.9681 19.762 28.7447 19.762V16.1689Z" fill="white"/>
</svg>
