<svg width="32" height="26" viewBox="0 0 32 26" fill="none" xmlns="http://www.w3.org/2000/svg">
<path d="M31.4091 3.51249C30.2645 4.00625 29.0189 4.3616 27.7358 4.50001C29.0679 3.70863 30.0654 2.45839 30.5413 0.983858C29.2913 1.72745 27.9219 2.24886 26.494 2.52498C25.8971 1.88693 25.1753 1.37864 24.3734 1.03177C23.5716 0.684893 22.7069 0.506875 21.8332 0.508805C18.2983 0.508805 15.4555 3.37409 15.4555 6.89024C15.4555 7.384 15.5154 7.87775 15.6126 8.35281C10.3197 8.076 5.59906 5.54737 2.46071 1.67587C1.88887 2.65259 1.58921 3.7647 1.5929 4.89651C1.5929 7.11093 2.71881 9.06352 4.43574 10.2119C3.42393 10.172 2.43581 9.89392 1.55175 9.40017V9.47872C1.55175 12.5797 3.74373 15.1494 6.66513 15.7405C6.1166 15.8829 5.55233 15.9558 4.98561 15.9574C4.5704 15.9574 4.17764 15.9163 3.78114 15.8602C4.5891 18.3888 6.94193 20.2254 9.74363 20.2853C7.55165 22.0022 4.80606 23.0121 1.82481 23.0121C1.28991 23.0121 0.796151 22.9934 0.283691 22.9336C3.11157 24.7478 6.46688 25.7951 10.0803 25.7951C21.8108 25.7951 28.2296 16.0771 28.2296 7.6421C28.2296 7.36529 28.2296 7.08849 28.2109 6.81169C29.4528 5.90272 30.5413 4.77681 31.4091 3.51249Z" fill="#00AC00"/>
</svg>
