<svg width="58" height="43" viewBox="0 0 58 43" fill="none" xmlns="http://www.w3.org/2000/svg">
<path d="M19.762 0.982727C16.2264 0.982727 13.4022 3.56975 12.8004 6.93468C9.40491 7.78983 6.45857 9.99778 5.16506 13.5028H5.11117L1.28992 24.2228C0.446044 25.9354 0.0048324 27.8182 0 29.7274C0 36.6513 5.65193 42.3032 12.5758 42.3032C18.8134 42.3032 24.0108 37.7185 24.9827 31.7485C25.9583 32.7097 27.2823 33.3205 28.7447 33.3205C30.2071 33.3205 31.5293 32.7097 32.5067 31.7485C33.4768 37.7185 38.676 42.3032 44.9136 42.3032C51.8375 42.3032 57.4894 36.6513 57.4894 29.7274C57.4894 27.9776 57.1301 26.3032 56.4779 24.7869L52.3818 13.334L52.3243 13.2801V13.2208C51.0129 10.0409 48.1061 7.80959 44.689 6.93288C44.0872 3.57334 41.263 0.982727 37.7274 0.982727C34.3912 0.982727 31.6874 3.29129 30.8772 6.37236H26.6104C25.802 3.29129 23.0982 0.982727 19.762 0.982727ZM19.762 4.57581C21.8999 4.57581 23.3551 6.03101 23.3551 8.1689V9.96545H34.1343V8.1689C34.1343 6.03101 35.5895 4.57581 37.7274 4.57581C39.8653 4.57581 41.3205 6.03101 41.3205 8.1689V9.79657L42.9482 9.96545C45.6178 10.2457 47.9174 12.1069 48.9558 14.5107C48.9738 14.5502 48.9953 14.5862 49.0097 14.6257L50.3571 18.4433C48.6643 17.6045 46.8028 17.1622 44.9136 17.1498C39.6605 17.1498 35.1673 20.4141 33.29 25.0097C32.7988 24.2514 32.1254 23.6282 31.3315 23.197C30.5375 22.7658 29.6482 22.5404 28.7447 22.5413C27.841 22.5404 26.9515 22.7661 26.1575 23.1976C25.3635 23.6291 24.6903 24.2528 24.1994 25.0115C22.3203 20.4159 17.8271 17.1516 12.5758 17.1516C10.6499 17.1516 8.82103 17.6061 7.18617 18.3876L8.53358 14.7371V14.6832C9.57558 11.8985 11.7817 10.2565 14.5412 9.96545L16.1689 9.79657V8.1689C16.1689 6.03101 17.6241 4.57581 19.762 4.57581ZM12.5758 20.7447C17.5576 20.7447 21.5585 24.7456 21.5585 29.7274C21.5585 34.7092 17.5576 38.7101 12.5758 38.7101C7.59399 38.7101 3.59309 34.7092 3.59309 29.7274C3.59309 28.4555 3.90748 27.2841 4.37997 26.1882C4.40872 26.1218 4.40333 26.0337 4.43387 25.9655C5.14836 24.4068 6.29553 23.0861 7.73892 22.1606C9.18231 21.2351 10.8612 20.7436 12.5758 20.7447ZM44.9136 20.7447C49.8954 20.7447 53.8963 24.7456 53.8963 29.7274C53.8963 34.7092 49.8954 38.7101 44.9136 38.7101C39.9318 38.7101 35.9309 34.7092 35.9309 29.7274C35.9309 24.7456 39.9318 20.7447 44.9136 20.7447ZM28.7447 26.1343C29.7579 26.1343 30.5412 26.9176 30.5412 27.9309C30.5412 28.9441 29.7579 29.7274 28.7447 29.7274C27.7314 29.7274 26.9482 28.9441 26.9482 27.9309C26.9482 26.9176 27.7314 26.1343 28.7447 26.1343Z" fill="black"/>
</svg>
